<mxfile host="app.diagrams.net" agent="Mozilla/5.0 (Windows NT 10.0; Win64; x64) AppleWebKit/537.36 (KHTML, like Gecko) Chrome/132.0.0.0 Safari/537.36 Edg/132.0.0.0" version="26.0.7">
  <diagram name="Page-1" id="RwB7W1pXo9uaDp351zQj">
    <mxGraphModel dx="1220" dy="523" grid="1" gridSize="10" guides="1" tooltips="1" connect="1" arrows="1" fold="1" page="1" pageScale="1" pageWidth="850" pageHeight="1100" math="0" shadow="0">
      <root>
        <mxCell id="0" />
        <mxCell id="1" parent="0" />
        <mxCell id="Q87F_zt2HsUtimDnW5c0-36" value="&lt;p style=&quot;margin:0px;margin-top:4px;text-align:center;&quot;&gt;&lt;b&gt;Hệ thống&lt;/b&gt;&lt;/p&gt;&lt;hr size=&quot;1&quot; style=&quot;border-style:solid;&quot;&gt;&lt;div style=&quot;height:2px;&quot;&gt;&lt;/div&gt;" style="verticalAlign=top;align=left;overflow=fill;html=1;whiteSpace=wrap;" vertex="1" parent="1">
          <mxGeometry x="260" width="260" height="560" as="geometry" />
        </mxCell>
        <mxCell id="Q87F_zt2HsUtimDnW5c0-34" value="&lt;p style=&quot;margin:0px;margin-top:4px;text-align:center;&quot;&gt;&lt;b&gt;Người dùng&lt;/b&gt;&lt;/p&gt;&lt;hr size=&quot;1&quot; style=&quot;border-style:solid;&quot;&gt;&lt;div style=&quot;height:2px;&quot;&gt;&lt;/div&gt;" style="verticalAlign=top;align=left;overflow=fill;html=1;whiteSpace=wrap;" vertex="1" parent="1">
          <mxGeometry width="260" height="560" as="geometry" />
        </mxCell>
        <mxCell id="Q87F_zt2HsUtimDnW5c0-3" value="" style="edgeStyle=orthogonalEdgeStyle;rounded=0;orthogonalLoop=1;jettySize=auto;html=1;" edge="1" parent="1" source="Q87F_zt2HsUtimDnW5c0-1" target="Q87F_zt2HsUtimDnW5c0-2">
          <mxGeometry relative="1" as="geometry" />
        </mxCell>
        <mxCell id="Q87F_zt2HsUtimDnW5c0-1" value="" style="ellipse;html=1;shape=startState;fillColor=#000000;strokeColor=#ff0000;" vertex="1" parent="1">
          <mxGeometry x="20" y="45" width="30" height="30" as="geometry" />
        </mxCell>
        <mxCell id="Q87F_zt2HsUtimDnW5c0-7" value="" style="edgeStyle=orthogonalEdgeStyle;rounded=0;orthogonalLoop=1;jettySize=auto;html=1;" edge="1" parent="1" source="Q87F_zt2HsUtimDnW5c0-2" target="Q87F_zt2HsUtimDnW5c0-4">
          <mxGeometry relative="1" as="geometry" />
        </mxCell>
        <mxCell id="Q87F_zt2HsUtimDnW5c0-2" value="Hỏi đáp" style="rounded=1;whiteSpace=wrap;html=1;arcSize=40;fontColor=#000000;fillColor=#ffffc0;strokeColor=#ff0000;" vertex="1" parent="1">
          <mxGeometry x="100" y="40" width="120" height="40" as="geometry" />
        </mxCell>
        <mxCell id="Q87F_zt2HsUtimDnW5c0-6" value="" style="edgeStyle=orthogonalEdgeStyle;rounded=0;orthogonalLoop=1;jettySize=auto;html=1;" edge="1" parent="1" source="Q87F_zt2HsUtimDnW5c0-4" target="Q87F_zt2HsUtimDnW5c0-5">
          <mxGeometry relative="1" as="geometry" />
        </mxCell>
        <mxCell id="Q87F_zt2HsUtimDnW5c0-4" value="Nhập vào câu hỏi" style="rounded=1;whiteSpace=wrap;html=1;arcSize=40;fontColor=#000000;fillColor=#ffffc0;strokeColor=#ff0000;" vertex="1" parent="1">
          <mxGeometry x="100" y="120" width="120" height="40" as="geometry" />
        </mxCell>
        <mxCell id="Q87F_zt2HsUtimDnW5c0-17" value="" style="edgeStyle=orthogonalEdgeStyle;rounded=0;orthogonalLoop=1;jettySize=auto;html=1;" edge="1" parent="1" source="Q87F_zt2HsUtimDnW5c0-5" target="Q87F_zt2HsUtimDnW5c0-11">
          <mxGeometry relative="1" as="geometry" />
        </mxCell>
        <mxCell id="Q87F_zt2HsUtimDnW5c0-28" style="edgeStyle=orthogonalEdgeStyle;rounded=0;orthogonalLoop=1;jettySize=auto;html=1;entryX=0.5;entryY=0;entryDx=0;entryDy=0;" edge="1" parent="1" source="Q87F_zt2HsUtimDnW5c0-5" target="Q87F_zt2HsUtimDnW5c0-25">
          <mxGeometry relative="1" as="geometry" />
        </mxCell>
        <mxCell id="Q87F_zt2HsUtimDnW5c0-5" value="Xác nhận gửi&lt;br&gt;câu hỏi" style="rhombus;whiteSpace=wrap;html=1;fontColor=#000000;fillColor=#ffffc0;strokeColor=#ff0000;" vertex="1" parent="1">
          <mxGeometry x="300" y="100" width="120" height="80" as="geometry" />
        </mxCell>
        <mxCell id="Q87F_zt2HsUtimDnW5c0-19" value="" style="edgeStyle=orthogonalEdgeStyle;rounded=0;orthogonalLoop=1;jettySize=auto;html=1;" edge="1" parent="1" source="Q87F_zt2HsUtimDnW5c0-11" target="Q87F_zt2HsUtimDnW5c0-18">
          <mxGeometry relative="1" as="geometry" />
        </mxCell>
        <mxCell id="Q87F_zt2HsUtimDnW5c0-11" value="Nhân viên trả lời câu hỏi" style="rounded=1;whiteSpace=wrap;html=1;arcSize=40;fontColor=#000000;fillColor=#ffffc0;strokeColor=#ff0000;" vertex="1" parent="1">
          <mxGeometry x="300" y="220" width="120" height="40" as="geometry" />
        </mxCell>
        <mxCell id="Q87F_zt2HsUtimDnW5c0-22" value="" style="edgeStyle=orthogonalEdgeStyle;rounded=0;orthogonalLoop=1;jettySize=auto;html=1;" edge="1" parent="1" source="Q87F_zt2HsUtimDnW5c0-18" target="Q87F_zt2HsUtimDnW5c0-21">
          <mxGeometry relative="1" as="geometry" />
        </mxCell>
        <mxCell id="Q87F_zt2HsUtimDnW5c0-18" value="Gửi câu trả lời cho khách hàng" style="rounded=1;whiteSpace=wrap;html=1;arcSize=40;fontColor=#000000;fillColor=#ffffc0;strokeColor=#ff0000;" vertex="1" parent="1">
          <mxGeometry x="300" y="300" width="120" height="40" as="geometry" />
        </mxCell>
        <mxCell id="Q87F_zt2HsUtimDnW5c0-24" value="" style="edgeStyle=orthogonalEdgeStyle;rounded=0;orthogonalLoop=1;jettySize=auto;html=1;" edge="1" parent="1" source="Q87F_zt2HsUtimDnW5c0-21" target="Q87F_zt2HsUtimDnW5c0-23">
          <mxGeometry relative="1" as="geometry" />
        </mxCell>
        <mxCell id="Q87F_zt2HsUtimDnW5c0-26" value="" style="edgeStyle=orthogonalEdgeStyle;rounded=0;orthogonalLoop=1;jettySize=auto;html=1;" edge="1" parent="1" source="Q87F_zt2HsUtimDnW5c0-21" target="Q87F_zt2HsUtimDnW5c0-25">
          <mxGeometry relative="1" as="geometry" />
        </mxCell>
        <mxCell id="Q87F_zt2HsUtimDnW5c0-21" value="Nhân viên&lt;div&gt;lưu hỏi đáp vào&lt;br&gt;CSDL&amp;nbsp;&lt;/div&gt;" style="rhombus;whiteSpace=wrap;html=1;fontColor=#000000;fillColor=#ffffc0;strokeColor=#ff0000;" vertex="1" parent="1">
          <mxGeometry x="300" y="380" width="120" height="80" as="geometry" />
        </mxCell>
        <mxCell id="Q87F_zt2HsUtimDnW5c0-27" style="edgeStyle=orthogonalEdgeStyle;rounded=0;orthogonalLoop=1;jettySize=auto;html=1;entryX=0.5;entryY=1;entryDx=0;entryDy=0;" edge="1" parent="1" source="Q87F_zt2HsUtimDnW5c0-23" target="Q87F_zt2HsUtimDnW5c0-25">
          <mxGeometry relative="1" as="geometry" />
        </mxCell>
        <mxCell id="Q87F_zt2HsUtimDnW5c0-23" value="Lưu hỏi đáp vào CSDL" style="rounded=1;whiteSpace=wrap;html=1;arcSize=40;fontColor=#000000;fillColor=#ffffc0;strokeColor=#ff0000;" vertex="1" parent="1">
          <mxGeometry x="300" y="500" width="120" height="40" as="geometry" />
        </mxCell>
        <mxCell id="Q87F_zt2HsUtimDnW5c0-25" value="" style="ellipse;html=1;shape=endState;fillColor=#000000;strokeColor=#ff0000;" vertex="1" parent="1">
          <mxGeometry x="470" y="405" width="30" height="30" as="geometry" />
        </mxCell>
        <mxCell id="Q87F_zt2HsUtimDnW5c0-29" value="Đúng" style="text;html=1;align=center;verticalAlign=middle;resizable=0;points=[];autosize=1;strokeColor=none;fillColor=none;" vertex="1" parent="1">
          <mxGeometry x="360" y="460" width="50" height="30" as="geometry" />
        </mxCell>
        <mxCell id="Q87F_zt2HsUtimDnW5c0-31" value="Sai" style="text;html=1;align=center;verticalAlign=middle;resizable=0;points=[];autosize=1;strokeColor=none;fillColor=none;" vertex="1" parent="1">
          <mxGeometry x="410" y="390" width="40" height="30" as="geometry" />
        </mxCell>
        <mxCell id="Q87F_zt2HsUtimDnW5c0-32" value="Sai" style="text;html=1;align=center;verticalAlign=middle;resizable=0;points=[];autosize=1;strokeColor=none;fillColor=none;" vertex="1" parent="1">
          <mxGeometry x="410" y="110" width="40" height="30" as="geometry" />
        </mxCell>
        <mxCell id="Q87F_zt2HsUtimDnW5c0-33" value="Đúng" style="text;html=1;align=center;verticalAlign=middle;resizable=0;points=[];autosize=1;strokeColor=none;fillColor=none;" vertex="1" parent="1">
          <mxGeometry x="360" y="170" width="50" height="30" as="geometry" />
        </mxCell>
      </root>
    </mxGraphModel>
  </diagram>
</mxfile>
